<?xml version="1.0" standalone="no"?>
<!DOCTYPE svg PUBLIC "-//W3C//DTD SVG 1.1//EN" "http://www.w3.org/Graphics/SVG/1.1/DTD/svg11.dtd" >
<!--
2013-9-30: Created.
-->
<svg>
<metadata>
Created by iconfont
</metadata>
<defs>

<font id="iconfont" horiz-adv-x="1024" >
  <font-face
    font-family="iconfont"
    font-weight="500"
    font-stretch="normal"
    units-per-em="1024"
    ascent="896"
    descent="-128"
  />
    <missing-glyph />
    
    <glyph glyph-name="wodexiaoxi" unicode="&#58912;" d="M529.072329 683.003044l-28.712949 0c-205.296713 0-437.870676-156.336628-437.870676-344.634178l0-78.975702c0-87.190805 77.824483-169.128979 77.824483-182.739974 0-44.550659-35.930327-105.570407-49.111534-125.995599-13.663184-28.142967 0-3.927449-21.535479-43.081191l21.535479 4.916986c54.879911 4.570085 141.883451 38.164205 186.635701 38.164205l14.353916 0c67.683519 0 126.07644-35.903721 215.34865-35.903721 229.962485 0 452.228685 155.168012 452.228685 380.533806l0 21.544689C959.769628 518.254839 736.392118 683.003044 529.072329 683.003044zM579.32178-49.34241 471.646432-49.34241c-67.054185 0-110.245893 28.717042-157.922752 34.873252l-35.885302 0c-41.511439-6.15621-105.85591-26.086122-143.568836-34.873252 8.782014 37.70474 35.894512 66.194608 35.894512 114.8784l0 7.17747c0 41.738613-78.961376 94.90244-78.961376 215.398792l0 35.898605c0 187.893344 221.754546 330.276169 423.515736 330.276169 202.372104 0 416.335197-149.693324 416.335197-344.635201C931.05361 128.359828 765.710864-16.376601 579.32178-49.34241zM514.718413 367.090001l-14.358009 0c-35.480073 0-64.603367-29.131481-64.603367-64.620763l0-14.358009c0-32.618908 34.102702-71.798233 64.603367-71.798233 50.386574 0 86.137823 32.123628 86.137823 78.974679C586.498226 331.387871 550.809399 367.090001 514.718413 367.090001zM550.607808 280.928642c0-16.805758-11.907191-28.717042-28.712949-28.717042l-21.535479 0c-16.739243 0-35.890418 19.156292-35.890418 35.899628 0 33.517371 16.73515 50.257637 50.248428 50.257637 16.73515 0 35.889395-19.156292 35.889395-35.899628L550.606785 280.928642zM299.369763 367.090001l-14.353916 0c-40.909735 0-71.780837-37.784558-71.780837-78.978772 0-34.951023 40.548508-71.798233 78.957283-71.798233 36.090986 0 71.780837 35.698037 71.780837 71.798233l0 14.358009C363.97313 337.95852 334.849836 367.090001 299.369763 367.090001zM335.264275 288.111229c0-16.743336-19.155269-35.899628-35.894512-35.899628l-21.531386 0c-16.805758 0-28.717042 11.911284-28.717042 28.717042l0 21.540595c0 20.377096 24.77629 35.899628 43.070958 35.899628s43.071981-15.522532 43.071981-35.899628L335.264275 288.111229zM722.8855 367.090001c-40.910759 0-71.782883-37.784558-71.782883-78.978772 0-34.951023 40.551578-71.798233 78.961376-71.798233 36.090986 0 71.782883 35.698037 71.782883 71.798233C801.846876 341.934065 776.697079 367.090001 722.8855 367.090001zM737.244532 252.212624l-21.540595 0c-16.797571 0-28.709879 11.911284-28.709879 28.717042l0 21.540595c0 16.743336 19.152199 35.899628 35.890418 35.899628 33.510208 0 50.244334-16.740266 50.244334-50.257637C773.128811 271.367893 753.978658 252.212624 737.244532 252.212624z"  horiz-adv-x="1024" />

    
    <glyph glyph-name="04" unicode="&#58887;" d="M511.193635 896c-281.853319 0-511.172145-229.318826-511.172145-511.172145 0-122.9441 44.262086-241.750973 124.655068-334.530053 97.223299-112.271016 238.114143-176.642093 386.517077-176.642093 281.853319 0 511.172145 229.318826 511.172145 511.172145S793.046954 896 511.193635 896zM511.193635-77.661521c-109.490693 0-214.055191 39.274492-296.768007 108.639303 21.999037 146.970306 147.913794 256.483512 297.956066 256.483512 148.259672 0 273.390577-105.971543 297.566186-251.972778 0.13917-0.844228 0.651846-1.497097 0.871857-2.307555C730.023572-35.768389 625.484657-77.661521 511.193635-77.661521zM511.193635 336.145086c-89.593528 0-162.475442 72.881914-162.475442 162.450882 0 89.593528 72.881914 162.475442 162.475442 162.475442 89.568968 0 162.450882-72.881914 162.450882-162.475442C673.644517 409.027 600.762603 336.145086 511.193635 336.145086zM851.710029 72.958918C821.72511 191.017754 733.565235 282.304853 621.191888 318.719204c60.540841 37.158295 101.135398 103.775528 101.135398 179.876764 0 116.430756-94.703919 211.158211-211.134675 211.158211s-211.158211-94.727455-211.158211-211.158211c0-76.508511 41.041742-143.431713 102.128005-180.469258C289.565978 280.910087 201.836915 188.329529 172.708504 70.534705c-3.678786 3.959172-7.682983 7.538697-11.234879 11.640108-72.715115 83.935668-112.769366 191.404308-112.769366 302.653041 0 255.016091 207.473285 462.489376 462.489376 462.489376S973.683011 639.842922 973.683011 384.827855C973.683011 264.598586 927.181931 155.293111 851.710029 72.958918z"  horiz-adv-x="1024" />

    
    <glyph glyph-name="fenlei" unicode="&#59003;" d="M349.534791 832.63381 158.087505 832.63381c-52.782134 0-95.723132-42.940998-95.723132-95.723132L62.364373 545.463392c0-52.782134 42.940998-95.723132 95.723132-95.723132L349.534791 449.74026c52.782134 0 95.723132 42.940998 95.723132 95.723132L445.257923 736.909655C445.257923 789.692812 402.316925 832.63381 349.534791 832.63381zM381.442502 545.463392c0-17.593703-14.314007-31.907711-31.907711-31.907711L158.087505 513.555681c-17.593703 0-31.907711 14.314007-31.907711 31.907711L126.179794 736.909655c0 17.593703 14.314007 31.907711 31.907711 31.907711L349.534791 768.817366c17.593703 0 31.907711-14.314007 31.907711-31.907711L381.442502 545.463392zM349.534791 385.923816 158.087505 385.923816c-52.782134 0-95.723132-42.940998-95.723132-95.723132l0-191.446263c0-52.782134 42.940998-95.723132 95.723132-95.723132L349.534791 3.031289c52.782134 0 95.723132 42.940998 95.723132 95.723132L445.257923 290.200684C445.257923 342.982818 402.316925 385.923816 349.534791 385.923816zM381.442502 98.754421c0-17.593703-14.314007-31.908734-31.907711-31.908734L158.087505 66.845687c-17.593703 0-31.907711 14.314007-31.907711 31.908734L126.179794 290.200684c0 17.593703 14.314007 31.908734 31.907711 31.908734L349.534791 322.109418c17.593703 0 31.907711-14.314007 31.907711-31.908734L381.442502 98.754421zM604.796476 448.895009l191.447287 0c52.782134 0 95.723132 42.940998 95.723132 95.723132L891.966894 736.065428c0 52.782134-42.940998 95.723132-95.723132 95.723132L604.796476 831.788559c-52.782134 0-95.723132-42.940998-95.723132-95.723132l0-191.446263C509.073344 491.836007 552.014342 448.895009 604.796476 448.895009zM572.888765 736.065428c0 17.593703 14.314007 31.907711 31.908734 31.907711l191.447287 0c17.593703 0 31.908734-14.314007 31.908734-31.907711l0-191.446263c0-17.593703-14.314007-31.907711-31.908734-31.907711L604.796476 512.711454c-17.593703 0-31.908734 14.314007-31.908734 31.907711L572.887742 736.065428zM700.520631 290.200684c-52.782134 0-95.723132-42.940998-95.723132-95.723132 0-17.622356 14.285355-31.907711 31.907711-31.907711s31.907711 14.285355 31.907711 31.907711c0 17.593703 14.314007 31.908734 31.908734 31.908734 17.622356 0 31.907711 14.285355 31.907711 31.907711S718.142987 290.200684 700.520631 290.200684zM927.746796 12.376121l-71.232344 71.232344c22.314215 31.304983 35.453467 69.581752 35.453467 110.869087 0 105.564267-85.881996 191.446263-191.446263 191.446263s-191.447287-85.881996-191.447287-191.446263 85.883019-191.446263 191.447287-191.446263c41.287335 0 79.56308 13.138228 110.869087 35.452443l71.232344-71.232344c12.409634-12.409634 32.715099-12.409634 45.124733 0l0 0C940.155407-20.338978 940.155407-0.033513 927.746796 12.376121zM572.888765 194.477552c0 70.375837 57.256028 127.631866 127.632889 127.631866s127.631866-57.255005 127.631866-127.631866-57.255005-127.631866-127.631866-127.631866S572.888765 124.100692 572.888765 194.477552z"  horiz-adv-x="1024" />

    
    <glyph glyph-name="shouye2" unicode="&#58980;" d="M969.6 393.6l-118.4 112L528 806.4c-9.6 9.6-22.4 9.6-32 0L182.4 508.8l-9.6-9.6-118.4-112c-9.6-9.6-9.6-22.4 0-32s22.4-9.6 32 0l83.2 80v-393.6c0-48 41.6-89.6 92.8-89.6h83.2c38.4 0 70.4 28.8 70.4 67.2V236.8h198.4v-217.6c0-35.2 32-67.2 70.4-67.2H768c51.2 0 92.8 38.4 92.8 89.6V438.4l80-73.6c9.6-9.6 22.4-9.6 32 0 6.4 6.4 6.4 19.2-3.2 28.8z m-160-355.2c0-25.6-19.2-44.8-44.8-44.8h-83.2c-12.8 0-22.4 9.6-22.4 22.4V256c0 12.8-9.6 22.4-22.4 22.4H393.6c-12.8 0-22.4-9.6-22.4-22.4v-240c0-12.8-9.6-22.4-22.4-22.4h-83.2c-25.6 0-44.8 19.2-44.8 44.8V476.8l294.4 281.6 294.4-281.6v-438.4z"  horiz-adv-x="1024" />

    
    <glyph glyph-name="fenlei1" unicode="&#58933;" d="M455.212 363.21c56.378-110.245 191.453-153.914 301.699-97.536 110.246 56.378 153.914 191.454 97.536 301.7-56.378 110.245-191.453 153.914-301.699 97.536-110.246-56.378-153.914-191.454-97.536-301.7z m115.372 266.821c90.983 46.528 202.458 10.49 248.985-80.494 46.528-90.983 10.489-202.457-80.494-248.985-90.983-46.527-202.458-10.488-248.985 80.495-46.528 90.983-10.489 202.458 80.494 248.984z m308.508-535.75L815.74 218.164c-6.982 13.654-23.711 19.062-37.366 12.08l-6.445-3.296c-13.654-6.982-19.062-23.712-12.08-37.366L823.2 65.7c6.983-13.654 23.713-19.063 37.367-12.08l6.445 3.295c13.654 6.984 19.063 23.713 12.08 37.367z m-744.79 550.117h302.591c12.177 0 22.048 9.87 22.048 22.047s-9.871 22.047-22.048 22.047H134.302c-12.177 0-22.047-9.87-22.047-22.047s9.87-22.047 22.047-22.047z m0-197.711h224.027c12.176 0 22.047 9.87 22.047 22.047s-9.87 22.047-22.047 22.047H134.302c-12.177 0-22.047-9.87-22.047-22.047s9.87-22.047 22.047-22.047z m0-197.711H423.29c12.176 0 22.047 9.87 22.047 22.047 0 12.176-9.871 22.047-22.047 22.047H134.302c-12.177 0-22.047-9.87-22.047-22.047-0.001-12.175 9.87-22.047 22.047-22.047zM729.027 93.57H132.512c-11.189 0-20.258-9.07-20.258-20.258s9.07-20.258 20.258-20.258h596.515c11.189 0 20.258 9.07 20.258 20.258s-9.07 20.258-20.258 20.258z"  horiz-adv-x="1024" />

    
    <glyph glyph-name="wode-xiaoxi" unicode="&#59014;" d="M690.086957 297.049043h-22.26087V493.078261c0 82.120348-69.765565 148.791652-155.826087 148.791652s-155.826087-66.649043-155.826087-148.791652v-196.051478h-22.26087c-24.576 0-44.521739-20.079304-44.521739-44.922435 0-24.776348 19.945739-44.877913 44.521739-44.877913h356.173914c24.576 0 44.521739 20.079304 44.521739 44.877913a44.744348 44.744348 0 0 1-44.521739 44.944695zM512 896C229.220174 896 0 666.735304 0 384c0-282.779826 229.220174-512 512-512s512 229.220174 512 512C1024 666.735304 794.779826 896 512 896z m0-845.913043c-49.174261 0-89.043478 40.225391-89.043478 89.778086h44.521739c0-24.731826 19.945739-44.877913 44.521739-44.877913s44.521739 20.123826 44.521739 44.877913h44.521739C601.043478 90.312348 561.174261 50.086957 512 50.086957z m178.086957 112.261565H333.913043c-49.174261 0-89.043478 40.225391-89.043478 89.778087a89.510957 89.510957 0 0 0 66.782609 86.661565V493.078261c0 91.247304 66.960696 167.424 156.493913 186.523826A44.521739 44.521739 0 0 0 512 717.913043c22.349913 0 40.670609-16.673391 43.876174-38.310956C645.38713 660.502261 712.347826 584.347826 712.347826 493.078261v-154.312348a89.488696 89.488696 0 0 0 66.782609-86.661565c0-49.530435-39.869217-89.755826-89.043478-89.755826z"  horiz-adv-x="1024" />

    
    <glyph glyph-name="shangpin" unicode="&#59019;" d="M874.843 584.771c-0.988 23.706-20.743 43.461-44.449 43.461h-112.604c-8.889 108.653-98.775 195.575-207.429 195.575s-198.539-85.935-207.429-195.575h-119.518c-22.718 0-40.498-17.78-40.498-43.461l-43.461-582.775v-1.975c0-24.694 19.755-44.449 44.449-44.449h735.877c24.694 0 44.449 19.755 44.449 44.449l-49.388 584.751zM510.361 773.432c81.983 0 149.151-64.204 158.041-146.188h-316.082c8.889 82.971 76.057 146.188 158.041 146.188zM148.843 4.959l42.474 573.886h109.641v-80.008c-13.829-7.902-23.706-23.706-23.706-42.474 0-27.657 21.731-49.388 49.388-49.388s49.388 21.731 49.388 49.388c0 17.78-9.877 33.583-24.694 42.474v80.008h318.057v-79.020c-14.817-8.889-24.694-24.694-24.694-42.474 0-27.657 21.731-49.388 49.388-49.388s49.388 21.731 49.388 49.388c0 17.78-9.877 33.583-24.694 42.474v79.020h106.677l48.4-573.886h-725.012z"  horiz-adv-x="1024" />

    
    <glyph glyph-name="wode1" unicode="&#58893;" d="M909.952-33.024a397.76 397.76 0 0 1-269.056 376.064l-9.792 3.392 8.832 5.184a255.104 255.104 0 0 1 126.208 219.264c0 140.096-113.984 254.08-254.144 254.08S257.856 710.976 257.856 570.88c0-89.728 48.32-173.76 126.144-219.264l8.832-5.184-9.728-3.392a397.696 397.696 0 0 1-269.056-376.064l0.064-0.896-0.064-0.768c0-12.352 9.6-22.4 21.504-22.4H888.32a22.016 22.016 0 0 1 21.568 22.4l-0.128 0.768c0 0.256 0.192 0.576 0.192 0.896zM305.984 570.88c0 115.456 92.416 209.408 206.016 209.408s205.952-93.952 205.952-209.408c0-104.256-76.544-193.408-178.176-207.296l-0.512-0.128-5.248 0.384a315.968 315.968 0 0 1-44.032 0l-5.248-0.384-0.512 0.128c-101.568 13.888-178.24 103.04-178.24 207.296zM512 316.8a350.144 350.144 0 0 0 349.12-329.088H162.752A350.336 350.336 0 0 0 512 316.8z m0 0"  horiz-adv-x="1024" />

    
    <glyph glyph-name="shangpin3" unicode="&#58880;" d="M783.725-126.52999999999997h-538.837c-58.9156 0-113.009 45.4971-123.073 103.574L44.0295 448.367c-5.03194 29.5627 2.51597 59.335 20.9664 81.1401 18.4505 22.0147 46.3358 34.3849 76.5274 34.3849h745.356c30.1916 0 58.2867-12.5799 76.5274-34.5946 18.4505-22.0147 25.9984-51.5774 20.9664-81.5594l-77.7854-470.696c-9.85422-58.077-63.9476-103.574-122.863-103.574ZM145.088 491.348c-8.8059 0-16.3538-3.14496-21.1761-8.59623-4.82228-5.66093-6.49959-13.6282-5.03194-22.4341l77.7854-471.325c3.77396-22.8534 27.8853-42.9812 51.3677-42.9812h539.047c23.4824 0 47.5938 20.3374 51.5774 43.4005l77.5758 470.906c1.67731 9.01556-0.209664 16.9828-4.82228 22.4341-4.82228 5.66093-12.3702 8.8059-21.1761 8.8059H145.088Zm149.281-217.841c-40.0459 0-72.5438 32.498-72.5438 72.5438s32.498 72.5438 72.5438 72.5438 72.5438-32.498 72.5438-72.5438c0-39.8362-32.7076-72.5438-72.5438-72.5438Zm437.779 0c-40.0459 0-72.5438 32.498-72.5438 72.5438s32.498 72.5438 72.5438 72.5438 72.5438-32.498 72.5438-72.5438c0-39.8362-32.498-72.5438-72.5438-72.5438Zm36.2719 326.028c-20.1278 0-36.2719 16.3538-36.2719 36.2719 0 103.993-115.944 181.36-219.728 181.36-106.09 0-215.954-67.7215-215.954-181.15 0-19.9181-16.3538-36.2719-36.2719-36.2719s-36.2719 16.3538-36.2719 36.2719c0 158.716 146.555 253.694 288.498 253.694C650.588 889.71007 804.691 785.297 804.691 635.597c0-19.9181-16.1441-36.0622-36.2719-36.0622Zm0 0"  horiz-adv-x="1024" />

    
    <glyph glyph-name="tousujianyi2" unicode="&#58881;" d="M38.7584 357.14048L680.5504 647.02464v-88.59648l140.032-56.34048v-127.4368l-128.34816-64.18432-2.9184-259.6352L267.95008 205.6192l-27.904-198.5536H155.4432l-29.82912 257.20832c0.01024 0.01024-52.56192 16.9984-86.85568 92.86656zM688.62976 21.67808c-2.3552 0-4.74112 0.4096-7.00416 1.24928l-534.7328 195.47136a20.4288 20.4288 0 0 0-13.33248 19.11808v389.12c0 8.56064 5.34528 18.04288 13.38368 20.97152l534.6816 195.4816a20.3776 20.3776 0 0 0 27.36128-19.11808v-263.89504a20.35712 20.35712 0 1 0-40.71424 0V794.8288L174.27456 614.23616v-362.48576L668.2624 71.17824V305.93024a20.35712 20.35712 0 1 0 40.72448 0v-263.8848a20.33664 20.33664 0 0 0-20.3776-20.36736h0.02048zM688.62976 285.57312a20.4288 20.4288 0 0 0-20.3776 20.36736V560.05632a20.4288 20.4288 0 0 0 9.5232 17.2544 20.49024 20.49024 0 0 0 19.83488 1.03424l129.11616-63.5392a20.3776 20.3776 0 0 0 11.35616-18.26816v-127.05792a20.3776 20.3776 0 0 0-11.25376-18.2272l-129.2288-63.58016a20.1216 20.1216 0 0 0-9.00096-2.0992h0.03072z m20.35712 241.77664v-188.69248l88.39168 43.49952v101.71392l-88.39168 43.47904zM153.91744 219.1872c-2.42688 0-4.90496 0.45056-7.31136 1.3824a196.864 196.864 0 0 0-25.57952 11.776C49.24416 270.5408 4.46464 347.50464 4.46464 433.00864c0 95.37536 57.18016 180.86912 142.31552 212.70528a20.35712 20.35712 0 0 0 14.26432-38.13376C91.7504 581.65248 45.18912 511.49824 45.18912 433.00864c0-70.41024 36.5056-133.59104 95.2832-164.88448 6.32832-3.51232 13.0048-6.58432 20.75648-9.5744a20.34688 20.34688 0 0 0-7.31136-39.36256zM246.15936-10.88512h-92.24192a20.3776 20.3776 0 0 0-20.24448 18.11456L107.6224 241.78688a20.3776 20.3776 0 0 0 17.99168 22.48704 20.224 20.224 0 0 0 22.49728-18.00192l24.03328-216.44288h55.78752l17.53088 157.7984c1.23904 11.18208 11.59168 19.26144 22.48704 17.98144a20.35712 20.35712 0 0 0 18.00192-22.4768l-19.54816-175.9232a20.36736 20.36736 0 0 0-20.24448-18.09408zM246.15936 204.1344c-11.264 0-20.36736 9.1136-20.36736 20.35712V654.5408a20.35712 20.35712 0 0 0 40.73472 0v-430.05952a20.34688 20.34688 0 0 0-20.36736-20.34688z m626.97472 371.4048a20.3776 20.3776 0 0 0-9.56416 38.3488l110.56128 58.64448a20.36736 20.36736 0 0 0 19.07712-35.97312l-110.55104-58.63424c-2.7648-1.50528-6.05184-2.38592-9.5232-2.38592zM983.6544 223.68256c-3.21536 0-6.48192 0.75776-9.5232 2.36544l-110.56128 58.65472a20.3776 20.3776 0 0 0 19.08736 35.97312l110.56128-58.65472a20.3776 20.3776 0 0 0 8.43776-27.53536 20.33664 20.33664 0 0 0-18.00192-10.8032z m18.54464 215.01952H873.1136a20.35712 20.35712 0 0 0 0 40.72448h129.08544a20.34688 20.34688 0 1 0 0-40.72448z"  horiz-adv-x="1024" />

    
    <glyph glyph-name="wodexiaoxi1" unicode="&#58934;" d="M981.554499 591.07833c-27.464797 59.923194-64.916794 114.852789-112.355989 159.795184-47.439195 44.942396-102.36879 82.394392-162.291984 107.36239-62.419994 27.464797-129.833587 39.948796-199.74398 37.451996-67.413593 0-134.827187-14.980799-199.743981-42.445596-59.923194-24.967998-114.852789-62.419994-159.795184-109.859189C100.184185 695.94392 65.228989 641.014325 37.764191 581.091131c-27.464797-62.419994-39.948796-129.833587-37.451996-199.743981 0-64.916794 14.980799-127.336788 39.948796-184.763182 22.471198-54.929595 54.929595-107.36239 94.878391-149.807985 12.483999-14.980799 19.974398-29.961597 22.471198-44.942396 2.4968-14.980799-4.9936-27.464797-19.974398-34.955196-27.464797-14.980799-62.419994-27.464797-104.86559-34.955197-7.490399-2.4968 9.987199-9.987199 47.439195-22.471198 39.948796-12.483999 97.37519-22.471198 179.769583-32.458396 37.451996-2.4968 69.910393-4.9936 97.37519-4.9936h79.897592c24.967998 0 44.942396 2.4968 64.916794 2.4968 19.974398 2.4968 37.451996 2.4968 54.929595 4.993599 64.916794 7.490399 127.336788 24.967998 184.763182 54.929595 54.929595 27.464797 104.86559 64.916794 147.311185 112.355989 42.445596 44.942396 74.903993 97.37519 99.871991 154.801585 24.967998 59.923194 34.955197 124.839988 34.955196 189.756781 0 69.910393-14.980799 137.323987-42.445596 199.743981zM230.017773 301.449558c-29.961597 0-57.426394 14.980799-72.407193 42.445596-14.980799 24.967998-14.980799 57.426394 0 82.394392s42.445596 42.445596 72.407193 42.445596c44.942396 0 82.394392-37.451996 82.394392-82.394392 0-47.439195-34.955197-84.891192-82.394392-84.891192z m282.138372 0c-29.961597 0-57.426394 14.980799-72.407193 42.445596-14.980799 24.967998-14.980799 57.426394 0 82.394392s42.445596 42.445596 72.407193 42.445596c44.942396 0 82.394392-37.451996 82.394392-82.394392 0-47.439195-37.451996-84.891192-82.394392-84.891192z m279.641573 0c-44.942396 0-82.394392 37.451996-82.394392 82.394392 0 44.942396 37.451996 82.394392 82.394392 82.394392 44.942396 0 82.394392-37.451996 82.394392-82.394392 0-44.942396-34.955197-82.394392-82.394392-82.394392zM237.508172 383.84395m-87.387992 0a87.387991 87.387991 0 1 1 174.775983 0 87.387991 87.387991 0 1 1-174.775983 0ZM512.156145 383.84395m-87.387991 0a87.387991 87.387991 0 1 1 174.775983 0 87.387991 87.387991 0 1 1-174.775983 0ZM786.804118 383.84395m-87.387991 0a87.387991 87.387991 0 1 1 174.775983 0 87.387991 87.387991 0 1 1-174.775983 0Z"  horiz-adv-x="1024" />

    
    <glyph glyph-name="wodexiaoxi3" unicode="&#58996;" d="M512-128C229.218462-128 0 101.218462 0 384S229.218462 896 512 896s512-229.218462 512-512-229.218462-512-512-512z m238.828308 539.451077h-83.771077c-9.452308 0-17.211077-9.846154-17.211077-21.937231v-6.813538c0-12.091077 7.68-21.937231 17.211077-21.937231h83.731692c9.531077 0 17.211077 9.846154 17.211077 21.937231v6.813538c0 12.091077-7.640615 21.937231-17.171692 21.937231z m-22.09477 177.112615l-68.647384-48.04923c-7.758769-5.435077-8.428308-17.92-1.496616-27.844924l3.899077-5.592615c6.931692-9.885538 18.904615-13.548308 26.70277-8.073846l68.52923 48.009846c7.837538 5.474462 8.467692 17.959385 1.575385 27.844923l-3.938462 5.592616c-6.931692 9.885538-18.825846 13.587692-26.624 8.11323z m29.065847-363.283692l-68.608 48.049231c-7.798154 5.435077-19.771077 1.811692-26.70277-8.113231l-3.938461-5.553231c-6.892308-9.924923-6.262154-22.409846 1.575384-27.844923l68.529231-48.049231c7.837538-5.435077 19.771077-1.811692 26.702769 8.113231l3.938462 5.592616c6.892308 9.885538 6.301538 22.331077-1.496615 27.805538z m-218.978462 374.429538c-33.043692-26.308923-102.281846-63.212308-152.064-98.697846h-0.078769c-0.590769-0.393846-1.181538-2.363077-1.732923-2.678154-5.907692-3.308308-8.546462-12.445538-40.526769-12.445538H281.993846c-16.029538 0-25.993846-7.522462-25.993846-24.457846v-150.449231c0-16.935385 9.137231-25.324308 25.993846-25.324308h62.621539c31.901538 0 34.422154-9.137231 40.290461-12.445538 0.551385-0.275692 1.102769-2.323692 1.693539-2.599385l0.078769-0.039384c48.206769-35.446154 117.917538-75.224615 152.103384-100.548923 10.24-7.601231 44.504615-20.952615 44.504616 26.072615V575.724308c0.078769 47.025231-34.461538 31.980308-44.425846 23.98523z"  horiz-adv-x="1024" />

    
    <glyph glyph-name="wodexiaoxi4" unicode="&#58954;" d="M98.66246281-59.217063749999966c0-13.12314375 72.16059469-25.24452094 189.28938375-31.84504969s261.48337125-6.56713689 378.65668313 0 189.32277655 18.71077594 189.32277656 31.84504969-72.2051175 25.24452094-189.3339075 31.80052781-261.48337125 6.56713689-378.65668312 0-189.27825375-18.72190687-189.27825282-31.80052781M511.991405 864Q388.2064325 864 283.121105 810.57244219T117.07270812 665.44983938Q56.08737781 573.6657478100001 56.07624687 465.09649875q0-92.59663594 45.81413063-174.06253031T227.04443094 154.32620530999998v-202.1899125l199.46288156 121.12472531a530.79165375 530.79165375 0 0 1 85.4840925-7.11254437q123.7849725 0 228.87029906 53.42755781T906.91010094 264.69863531q60.99646125 91.78409156 60.99646125 200.35334063t-60.99646125 200.35334063Q845.91363875 757.1560153099999 740.86170406 810.57244219T511.991405 864M489.19564719 864Q371.61049719 864 271.76774938 813.24382031T114.02288563 675.37846031Q56.06511594 588.19136531 56.07624687 485.04278719q0-87.93285469 43.53232876-165.35829094T218.49602187 189.81100875000004v-192.0386775l189.48973782 115.02507937a505.33564875 505.33564875 0 0 1 81.25441032-6.75636q117.59628 0 217.4278978 50.76731063T864.36840781 294.66259031000004q57.94663875 87.187095 57.94663875 190.33567312t-57.94663875 190.33567407Q806.42176999 762.45424875 706.62354406 813.24382031T489.19564719 864M662.44563313 430.88060062a43.32084469 43.32084469 0 1 0 43.30971374 43.28745188 43.30971375 43.30971375 0 0 0-43.30971375-43.28745188z m-173.24998594 0a43.32084469 43.32084469 0 1 0 43.30971375 43.28745188 43.30971375 43.30971375 0 0 0-43.30971375-43.28745188z m-173.24998688 0a43.32084469 43.32084469 0 1 0 43.30971375 43.28745188 43.30971375 43.30971375 0 0 0-43.30971375-43.28745188z"  horiz-adv-x="1024" />

    
    <glyph glyph-name="wodexiaoxi2" unicode="&#58917;" d="M176.100923-127.896909a68.337672 68.337672 0 0 0-19.566769 1.752248 27.159844 27.159844 0 0 0-18.690645 17.230438c-7.008992 20.734935 11.097571 47.310696 41.469869 89.364648 14.310025 20.442893 43.514158 62.496845 40.301704 72.134209A452.079982 452.079982 0 0 0 0.292041 428.733869c0 257.580455 242.394305 467.266131 540.276464 467.266131s540.276464-209.685676 540.276464-467.266131-242.394305-467.266131-540.276464-467.266131a905.328129 905.328129 0 0 1-153.321699-38.841497c-99.002011-29.788216-170.844179-50.52315-211.145883-50.52315zM540.568505 866.795867C258.74862 866.795867 29.496175 670.25205 29.496175 428.733869c0-139.595757 75.054622-267.801901 204.428932-350.449598a29.204133 29.204133 0 0 0 13.14186-19.566769c4.672661-24.531472-18.690645-56.656018-45.558448-94.037309-13.14186-20.734935-37.089249-54.319688-37.089249-63.957052 26.28372-6.716951 134.339013 25.991679 213.190172 49.647027A843.707408 843.707408 0 0 0 540.568505-9.328129c281.819885 0 511.072331 196.543816 511.072331 438.061998S822.096349 866.795867 540.568505 866.795867zM270.138232 448.300638m-73.010333 0a73.010333 73.010333 0 1 1 146.020666 0 73.010333 73.010333 0 1 1-146.020666 0ZM540.276464 448.300638m-73.010333 0a73.010333 73.010333 0 1 1 146.020666 0 73.010333 73.010333 0 1 1-146.020666 0ZM810.414696 448.300638m-73.010333 0a73.010333 73.010333 0 1 1 146.020666 0 73.010333 73.010333 0 1 1-146.020666 0Z"  horiz-adv-x="1080" />

    
    <glyph glyph-name="shangpin1" unicode="&#59224;" d="M804.3-5h-585c-54.9 0-96.3 43.2-96.3 100.4V677.2c0 53.7 42.3 95.8 96.3 95.8h589.6c27.3 0 52.9-11.1 70.2-30.4 16.5-18.5 24.1-42.6 21.3-67.9l0.1-583.8c0-53.8-42.2-95.9-96.2-95.9z m-585 732.9c-29.2 0-51.2-21.8-51.2-50.7v-581.7c0-32.6 21.1-55.3 51.2-55.3h585c29.2 0 51.1 21.8 51.1 50.7V677.2c1.9 18.4-4.4 29.1-9.9 35.3-8.8 9.8-22.1 15.4-36.6 15.4H219.3zM739.8 544.3c-18.4-114.5-115.2-197-225.7-197-110.6 0-207.3 82.4-225.7 192.4-13.8 9.2-18.4 18.3-18.4 32.1 0 18.3 13.8 36.6 36.9 36.6 18.4 0 36.9-13.7 36.9-36.6 0-9.2-4.6-18.3-13.8-27.5 9-96.2 92-160.3 184.1-160.3s175 68.7 188.9 160.3c-9.2 9.2-13.8 18.3-13.8 27.5 0 18.3 13.8 36.6 36.9 36.6 18.4 0 36.9-13.7 36.9-36.6-4.8-13.7-9.4-22.9-23.2-27.5z"  horiz-adv-x="1024" />

    
    <glyph glyph-name="fenlei2" unicode="&#58914;" d="M911.7 291.9L822 381.6c28.4 35.4 45.5 80.3 45.5 129.3 0 114.2-92.6 206.7-206.8 206.7-114.2 0-206.8-92.5-206.8-206.7s92.6-206.7 206.8-206.7c43.9 0 84.6 13.8 118.1 37.1l91.1-91.1c4.1-4.1 9.6-6.1 15.5-6.1 7.7 0 16 3.4 22.5 9.9 11.5 11.5 13.2 28.5 3.8 37.9z m-251 71.3c-81.5 0-147.7 66.2-147.7 147.6 0 81.4 66.2 147.6 147.7 147.6s147.8-66.2 147.8-147.6c0-81.4-66.3-147.6-147.8-147.6zM158.5 619.1h216.6c10.9 0 19.7 8.8 19.7 19.7v19.7c0 10.9-8.8 19.7-19.7 19.7H158.5c-10.8 0-19.7-8.8-19.7-19.7v-19.7c0-10.9 8.9-19.7 19.7-19.7zM158.5 304h256c10.9 0 19.7 8.9 19.7 19.7v19.7c0 10.9-8.8 19.7-19.7 19.7h-256c-10.8 0-19.7-8.8-19.7-19.7v-19.7c0-10.9 8.9-19.7 19.7-19.7zM847.8 87.39999999999998H158.5c-10.8 0-19.7-8.8-19.7-19.7V48c0-10.8 8.8-19.7 19.7-19.7h689.3c10.8 0 19.7 8.8 19.7 19.7v19.7c0 10.9-8.9 19.7-19.7 19.7z"  horiz-adv-x="1024" />

    
    <glyph glyph-name="guanyuwomen2" unicode="&#58901;" d="M512-81.454545C256-81.454545 46.545455 128 46.545455 384S256 849.454545 512 849.454545s465.454545-209.454545 465.454545-465.454545-209.454545-465.454545-465.454545-465.454545z m0 861.090909C293.236364 779.636364 116.363636 602.763636 116.363636 384s176.872727-395.636364 395.636364-395.636364 395.636364 176.872727 395.636364 395.636364S730.763636 779.636364 512 779.636364zM512 616.727273c25.6 0 46.545455-20.945455 46.545455-46.545455v-232.727273c0-25.6-20.945455-46.545455-46.545455-46.545454s-46.545455 20.945455-46.545455 46.545454V570.181818c0 25.6 20.945455 46.545455 46.545455 46.545455z m0-465.454546c-25.6 0-46.545455 20.945455-46.545455 46.545455s20.945455 46.545455 46.545455 46.545454 46.545455-20.945455 46.545455-46.545454-20.945455-46.545455-46.545455-46.545455z"  horiz-adv-x="1024" />

    
    <glyph glyph-name="tousu" unicode="&#59886;" d="M153.258667 846.848C310.869333 879.616 430.421333 896 512 896c81.578667 0 201.130667-16.384 358.656-49.152a85.333333 85.333333 0 0 0 68.010667-83.541333v-420.864a341.333333 341.333333 0 0 0-70.826667-208.213334C733.184-40.448 614.656-128 512-128c-102.656 0-221.184 87.466667-355.84 262.314667A341.333333 341.333333 0 0 0 85.333333 342.528V763.221333a85.333333 85.333333 0 0 0 67.925334 83.626667z m358.4-56.661333c-60.416 0-100.778667-59.392-90.624-106.496l62.037333-341.333334a61.781333 61.781333 0 0 0 28.586667 6.656c10.410667 0 19.968-2.218667 28.672-6.656l61.952 341.333334c10.24 47.104-30.208 106.496-90.624 106.496z m0-663.381334a85.333333 85.333333 0 1 1 0 170.666667 85.333333 85.333333 0 0 1 0-170.666667z"  horiz-adv-x="1024" />

    
    <glyph glyph-name="xiaoxi" unicode="&#58897;" d="M500.8 316.79999999999995H366.4c-18.6 0-33.6-15-33.6-33.6s15-33.6 33.6-33.6h134.4c18.6 0 33.6 15 33.6 33.6s-15 33.6-33.6 33.6zM568 518.4H321.6c-18.6 0-33.6-15-33.6-33.6s15-33.6 33.6-33.6H568c18.6 0 33.6 15 33.6 33.6s-15 33.6-33.6 33.6z m179.2 0h-44.8c-18.6 0-33.6-15-33.6-33.6s15-33.6 33.6-33.6h44.8c18.6 0 33.6 15 33.6 33.6s-15 33.6-33.6 33.6zM512 832C264.6 832 64 631.4 64 384c0-85.7 24.1-165.8 65.8-233.9 19.3-31.4-49.3-145.8-23.2-171.4 29.4-28.9 154.4 31.8 190.9 11.9C361.2-44.200000000000045 434.3-64 512-64c247.4 0 448 200.6 448 448S759.4 832 512 832z m0-832c-78.8 0-152 23.7-213 64.4-20.4 13.6-111-38.9-128.4-21.8-12.6 12.4 47.2 93.8 36.5 107.8C157.5 215.20000000000005 128 296.20000000000005 128 384c0 212.1 171.9 384 384 384s384-171.9 384-384-171.9-384-384-384z m168 316.8h-44.8c-18.6 0-33.6-15-33.6-33.6s15-33.6 33.6-33.6H680c18.6 0 33.6 15 33.6 33.6s-15 33.6-33.6 33.6z"  horiz-adv-x="1024" />

    
    <glyph glyph-name="wodetousu" unicode="&#58968;" d="M936.96 747.52c-25.6 25.6-66.56 25.6-92.16 0L552.96 458.24l92.16-92.16L936.96 652.8c25.6 25.6 25.6 69.12 0 94.72zM524.8 350.72c-2.56-10.24 7.68-17.92 15.36-15.36l94.72 17.92-92.16 92.16-17.92-94.72z m325.12-358.4c0-17.92-12.8-30.72-30.72-30.72H181.76c-17.92 0-30.72 12.8-30.72 30.72V765.44c0 17.92 12.8 30.72 30.72 30.72H819.2c10.24 0 20.48-5.12 25.6-12.8l33.28 33.28C865.28 834.56 844.8 844.8 819.2 844.8H181.76c-43.52 0-76.8-35.84-76.8-76.8v-773.12c0-43.52 35.84-76.8 76.8-76.8H819.2c43.52 0 76.8 35.84 76.8 76.8V581.12l-46.08-46.08v-542.72z m-102.4 227.84H256c-10.24 0-17.92-7.68-17.92-17.92v-12.8c0-10.24 7.68-17.92 17.92-17.92h488.96c10.24 0 17.92 7.68 17.92 17.92v12.8c2.56 7.68-5.12 17.92-15.36 17.92zM652.8 588.8H256c-10.24 0-17.92-7.68-17.92-17.92v-12.8c0-10.24 7.68-17.92 17.92-17.92h348.16l48.64 48.64z m-2.56-253.44l-128-23.04c-12.8-2.56-23.04 7.68-23.04 23.04l2.56 7.68H256c-10.24 0-17.92-7.68-17.92-17.92v-12.8c0-10.24 7.68-17.92 17.92-17.92h488.96c10.24 0 17.92 7.68 17.92 17.92v12.8c0 10.24-7.68 17.92-17.92 17.92h-102.4l7.68-7.68zM256 417.28h227.84l48.64 48.64H256c-10.24 0-17.92-7.68-17.92-17.92v-12.8c0-10.24 7.68-17.92 17.92-17.92z m509.44 17.92v10.24l-30.72-30.72h10.24c12.8 2.56 20.48 10.24 20.48 20.48z m0 0"  horiz-adv-x="1024" />

    
    <glyph glyph-name="gerenzhongxin-wodexiaoxi-icon" unicode="&#59026;" d="M870.4 166.4c6.4 0 19.2-3.2 25.6-6.4-28.8 19.2-51.2 54.4-51.2 89.6v214.4c0 156.8-115.2 288-265.6 320v9.6c0 38.4-32 70.4-73.6 70.4s-70.4-32-70.4-70.4v-6.4c-153.6-32-265.6-163.2-265.6-320v-214.4c0-38.4-19.2-70.4-51.2-89.6 6.4 6.4 16 6.4 25.6 6.4-25.6 0-48-22.4-48-48s22.4-48 48-48h726.4c25.6 0 48 22.4 48 48s-22.4 44.8-48 44.8zM505.6-96c67.2 0 121.6 54.4 121.6 121.6H384c3.2-67.2 57.6-121.6 121.6-121.6z"  horiz-adv-x="1024" />

    
    <glyph glyph-name="guanyuwomen3" unicode="&#59010;" d="M524.575-79.495c255.102 0 459.902 206.597 459.902 461.699S779.677 842.105 524.575 842.105 62.877 637.305 62.877 382.204s206.597-461.699 461.698-461.699z m0-46.709c-280.252 0-506.61 228.155-506.61 508.408S244.323 888.814 524.575 888.814s506.611-226.358 506.611-506.61-226.358-508.408-506.61-508.408z m26.948 795.846c-16.169 0-28.744-5.39-41.32-16.168-10.778-10.78-17.964-25.151-17.964-41.32s5.39-28.743 17.965-41.319c10.778-10.779 25.15-16.168 41.319-16.168 16.168 0 28.744 5.39 41.32 16.168 10.778 10.779 16.168 25.151 16.168 41.32 0 16.168-5.39 28.743-16.169 41.319-12.575 10.779-25.15 16.168-41.32 16.168z m-3.593-513.796c-5.39 5.39-7.186 16.168-7.186 30.54 0 5.39 0 14.372 1.796 25.15 1.797 10.78 3.593 21.559 5.39 30.541l21.558 111.383c1.796 10.779 3.593 21.558 3.593 34.133s1.796 21.558 1.796 25.15c0 23.355-5.39 43.117-17.965 57.489-10.779 14.372-26.947 21.557-48.505 21.557-10.779 0-23.354-3.593-37.726-8.982-12.576-5.39-26.948-12.575-41.32-21.558l-5.39-34.133c3.594 1.796 8.983 5.39 14.373 7.186 5.39 1.796 12.575 3.593 17.965 3.593 10.779 0 19.761-3.593 23.354-8.983 3.593-5.39 5.39-16.168 5.39-30.54 0-7.186 0-16.168-1.797-25.15-1.796-8.983-3.593-19.762-5.39-30.541l-19.76-111.383c-1.797-12.575-3.594-21.558-3.594-30.54-1.796-8.983-1.796-17.965-1.796-26.947 0-23.355 5.39-41.32 17.965-57.488 12.575-14.372 28.744-21.558 50.301-21.558 14.372 0 25.151 1.796 35.93 7.186 10.78 5.39 25.151 12.575 41.32 23.354l5.39 34.134-14.373-7.186c-7.186-1.797-12.575-3.593-17.965-3.593-10.779-1.797-19.761 1.796-23.354 7.186z"  horiz-adv-x="1041" />

    
    <glyph glyph-name="tousujianyi" unicode="&#58895;" d="M859.2 499.4c-15.9 0-28.8-12.9-28.8-28.8v-379.4c0-11.3-9.2-20.5-20.5-20.5H216.8c-11.3 0-20.5 9.2-20.5 20.5V684.3c0 11.3 9.2 20.5 20.5 20.5h388c15.9 0 28.8 12.9 28.8 28.8s-12.9 28.8-28.8 28.8h-388c-43.1 0-78.1-35-78.1-78.1v-593.1c0-43.1 35-78.1 78.1-78.1h593.1c43.1 0 78.1 35 78.1 78.1V470.6c0 15.9-12.9 28.8-28.8 28.8zM329.9 204.4c5.6-5.6 13-8.4 20.4-8.4 7.4 0 14.7 2.8 20.4 8.4l508.9 508.9c11.3 11.3 11.3 29.5 0 40.8-11.3 11.3-29.5 11.3-40.8 0l-508.9-509c-11.2-11.2-11.2-29.5 0-40.7z"  horiz-adv-x="1024" />

    
    <glyph glyph-name="wodexiaoxi5" unicode="&#58890;" d="M984.9 410.12c0-225.65-212.02-408.58-473.56-408.58-65.77 0-133.15 13.94-190.07 34.85-80.45-74.23-267.7-87.53-267.7-87.53s108.08 169 55.8 245.17C64 256.72 37.78 330.78 37.78 410.13c0 225.65 212.02 408.58 473.56 408.58S984.9 635.78 984.9 410.12zM727.35 439.37c-33.14 0-60.04-24.91-60.04-55.6s26.9-55.6 60.04-55.6 60.04 24.91 60.04 55.6c0.01 30.7-26.89 55.6-60.04 55.6z m-432.04 0c-33.14 0-60.04-24.91-60.04-55.6s26.9-55.6 60.04-55.6 60.05 24.91 60.05 55.6c0 30.7-26.9 55.6-60.05 55.6z m216.08 0c-33.14 0-60.05-24.91-60.05-55.6s26.9-55.6 60.05-55.6c33.14 0 60.05 24.91 60.05 55.6-0.12 30.7-26.91 55.6-60.05 55.6z m0 0"  horiz-adv-x="1024" />

    


  </font>
</defs>
</svg>
